<mxfile host="app.diagrams.net" agent="Mozilla/5.0 (Macintosh; Intel Mac OS X 10_15_7) AppleWebKit/537.36 (KHTML, like Gecko) Chrome/131.0.0.0 Safari/537.36" version="25.0.3">
  <diagram name="Page-1" id="2YBvvXClWsGukQMizWep">
    <mxGraphModel dx="1454" dy="3019" grid="1" gridSize="10" guides="1" tooltips="1" connect="1" arrows="1" fold="1" page="1" pageScale="1" pageWidth="850" pageHeight="1100" math="0" shadow="0">
      <root>
        <mxCell id="0" />
        <mxCell id="1" parent="0" />
        <mxCell id="nZ3FSQc-BHvVaOolIKdR-34" value="" style="rounded=0;whiteSpace=wrap;html=1;fillColor=#000000;" vertex="1" parent="1">
          <mxGeometry x="90" y="-2180" width="690" height="610" as="geometry" />
        </mxCell>
        <mxCell id="nZ3FSQc-BHvVaOolIKdR-11" value="&lt;h4&gt;&lt;br&gt;&lt;/h4&gt;" style="rounded=1;whiteSpace=wrap;html=1;fillColor=#e51400;strokeColor=#B20000;fontColor=#ffffff;" vertex="1" parent="1">
          <mxGeometry x="202.5" y="-1754" width="478" height="123" as="geometry" />
        </mxCell>
        <mxCell id="nZ3FSQc-BHvVaOolIKdR-9" value="&lt;h4&gt;&lt;br&gt;&lt;/h4&gt;" style="rounded=1;whiteSpace=wrap;html=1;fillColor=#e51400;strokeColor=#B20000;fontColor=#ffffff;" vertex="1" parent="1">
          <mxGeometry x="198.5" y="-1758" width="473" height="119" as="geometry" />
        </mxCell>
        <mxCell id="nZ3FSQc-BHvVaOolIKdR-1" value="&lt;h3&gt;&lt;font style=&quot;&quot; face=&quot;Comic Sans MS&quot;&gt;SIMPLYRUN 백엔드 서버&lt;/font&gt;&lt;/h3&gt;" style="rounded=1;whiteSpace=wrap;html=1;fillColor=#0050ef;strokeColor=#001DBC;fontColor=#ffffff;" vertex="1" parent="1">
          <mxGeometry x="195.5" y="-2120" width="466" height="50" as="geometry" />
        </mxCell>
        <mxCell id="nZ3FSQc-BHvVaOolIKdR-5" value="&lt;h4&gt;&lt;font face=&quot;Comic Sans MS&quot;&gt;&lt;br&gt;&lt;/font&gt;&lt;font face=&quot;Comic Sans MS&quot;&gt;&lt;br&gt;&lt;/font&gt;&lt;font face=&quot;Comic Sans MS&quot;&gt;&lt;br&gt;&lt;br&gt;&lt;br&gt;&lt;br&gt;&lt;br&gt;&lt;br&gt;&lt;br&gt;&lt;br&gt;&lt;br&gt;&lt;br&gt;&lt;br&gt;&lt;br&gt;&lt;/font&gt;&lt;span style=&quot;font-family: &amp;quot;Comic Sans MS&amp;quot;; background-color: initial;&quot;&gt;네트워킹 레이어&lt;/span&gt;&lt;/h4&gt;" style="rounded=1;whiteSpace=wrap;html=1;fillColor=#d80073;strokeColor=#A50040;fontColor=#ffffff;" vertex="1" parent="1">
          <mxGeometry x="195.5" y="-2040" width="466" height="240" as="geometry" />
        </mxCell>
        <mxCell id="nZ3FSQc-BHvVaOolIKdR-6" value="&lt;h6&gt;&lt;font color=&quot;#ffffff&quot;&gt;HTTP Response&lt;/font&gt;&lt;/h6&gt;" style="rounded=1;whiteSpace=wrap;html=1;fillColor=#111D70;" vertex="1" parent="1">
          <mxGeometry x="531.5" y="-2105" width="70" height="20" as="geometry" />
        </mxCell>
        <mxCell id="nZ3FSQc-BHvVaOolIKdR-8" value="&lt;h4&gt;&lt;br&gt;&lt;/h4&gt;&lt;div&gt;&lt;b&gt;&lt;br&gt;&lt;/b&gt;&lt;/div&gt;&lt;div&gt;&lt;b&gt;&lt;br&gt;&lt;/b&gt;&lt;/div&gt;&lt;div&gt;&lt;b&gt;&lt;br&gt;&lt;/b&gt;&lt;/div&gt;&lt;div&gt;&lt;b&gt;컨트롤러&lt;/b&gt;&lt;/div&gt;" style="rounded=1;whiteSpace=wrap;html=1;fillColor=#e51400;strokeColor=#B20000;fontColor=#ffffff;" vertex="1" parent="1">
          <mxGeometry x="195.5" y="-1760" width="467.5" height="110" as="geometry" />
        </mxCell>
        <mxCell id="nZ3FSQc-BHvVaOolIKdR-12" value="&lt;h3&gt;&lt;br&gt;&lt;br&gt;&lt;br&gt;&lt;br&gt;&lt;br&gt;&lt;br&gt;&lt;br&gt;&lt;span style=&quot;background-color: initial;&quot;&gt;&lt;font style=&quot;&quot; size=&quot;1&quot;&gt;*Response 헤더 - JWT 액세스 토큰&lt;br&gt;&lt;/font&gt;&lt;/span&gt;&lt;span style=&quot;background-color: initial;&quot;&gt;&lt;font style=&quot;&quot; size=&quot;1&quot;&gt;유효성 검증*&lt;br&gt;&lt;/font&gt;&lt;/span&gt;&lt;span style=&quot;background-color: initial; font-size: 12px;&quot;&gt;HTTP Filter Chain&lt;/span&gt;&lt;/h3&gt;" style="rounded=1;whiteSpace=wrap;html=1;fillColor=default;strokeColor=#36393d;shadow=0;glass=0;gradientColor=none;fillStyle=auto;" vertex="1" parent="1">
          <mxGeometry x="486.5" y="-2020" width="160" height="180" as="geometry" />
        </mxCell>
        <mxCell id="nZ3FSQc-BHvVaOolIKdR-16" value="" style="edgeStyle=orthogonalEdgeStyle;rounded=1;orthogonalLoop=1;jettySize=auto;html=1;curved=0;strokeWidth=2;" edge="1" parent="1" source="nZ3FSQc-BHvVaOolIKdR-13" target="nZ3FSQc-BHvVaOolIKdR-14">
          <mxGeometry relative="1" as="geometry" />
        </mxCell>
        <mxCell id="nZ3FSQc-BHvVaOolIKdR-13" value="&lt;h6&gt;HTTP Response&lt;/h6&gt;" style="rounded=1;whiteSpace=wrap;html=1;fillColor=#111D70;fontColor=#ffffff;strokeColor=#432D57;" vertex="1" parent="1">
          <mxGeometry x="531.5" y="-2000" width="70" height="20" as="geometry" />
        </mxCell>
        <mxCell id="nZ3FSQc-BHvVaOolIKdR-14" value="&lt;h5&gt;JWT Filter&lt;/h5&gt;" style="rounded=1;whiteSpace=wrap;html=1;fillColor=#3D0D35;fontColor=#ffffff;strokeColor=#432D57;" vertex="1" parent="1">
          <mxGeometry x="531.5" y="-1925" width="70" height="20" as="geometry" />
        </mxCell>
        <mxCell id="nZ3FSQc-BHvVaOolIKdR-19" value="&lt;div&gt;&lt;b&gt;&lt;br&gt;&lt;/b&gt;&lt;/div&gt;&lt;div&gt;&lt;b&gt;&lt;br&gt;&lt;/b&gt;&lt;/div&gt;&lt;div&gt;&lt;b&gt;&lt;br&gt;&lt;/b&gt;&lt;/div&gt;&lt;div&gt;&lt;b&gt;API 호출&lt;/b&gt;&lt;/div&gt;" style="rounded=1;whiteSpace=wrap;html=1;" vertex="1" parent="1">
          <mxGeometry x="486.5" y="-1742" width="160" height="62" as="geometry" />
        </mxCell>
        <mxCell id="nZ3FSQc-BHvVaOolIKdR-20" value="&lt;h6&gt;HTTP Response&lt;/h6&gt;" style="rounded=1;whiteSpace=wrap;html=1;fillColor=#111D70;fontColor=#ffffff;strokeColor=#432D57;" vertex="1" parent="1">
          <mxGeometry x="531.5" y="-1728.75" width="70" height="20" as="geometry" />
        </mxCell>
        <mxCell id="nZ3FSQc-BHvVaOolIKdR-21" style="edgeStyle=orthogonalEdgeStyle;rounded=0;orthogonalLoop=1;jettySize=auto;html=1;exitX=0.5;exitY=1;exitDx=0;exitDy=0;" edge="1" parent="1" source="nZ3FSQc-BHvVaOolIKdR-20" target="nZ3FSQc-BHvVaOolIKdR-20">
          <mxGeometry relative="1" as="geometry" />
        </mxCell>
        <mxCell id="nZ3FSQc-BHvVaOolIKdR-22" value="&lt;div&gt;&lt;span style=&quot;background-color: initial;&quot;&gt;&lt;b&gt;정의된 API에서 호출&lt;/b&gt;&lt;/span&gt;&lt;/div&gt;&lt;div&gt;&lt;span style=&quot;background-color: initial;&quot;&gt;&lt;b&gt;&lt;br&gt;&lt;/b&gt;&lt;/span&gt;&lt;/div&gt;&lt;div&gt;&lt;span style=&quot;background-color: initial;&quot;&gt;&lt;br&gt;&lt;/span&gt;&lt;/div&gt;" style="rounded=1;whiteSpace=wrap;html=1;" vertex="1" parent="1">
          <mxGeometry x="211.5" y="-1742" width="160" height="62" as="geometry" />
        </mxCell>
        <mxCell id="nZ3FSQc-BHvVaOolIKdR-23" value="&lt;h6&gt;컨트롤러에 종속된 인자&lt;/h6&gt;" style="rounded=1;whiteSpace=wrap;html=1;fillColor=#4A2825;fontColor=#ffffff;strokeColor=#432D57;" vertex="1" parent="1">
          <mxGeometry x="244.75" y="-1708.75" width="93.5" height="20" as="geometry" />
        </mxCell>
        <mxCell id="nZ3FSQc-BHvVaOolIKdR-24" value="&lt;div&gt;&lt;b&gt;HTTP Request&lt;/b&gt;&lt;/div&gt;&lt;div&gt;&lt;b&gt;&lt;br&gt;&lt;/b&gt;&lt;/div&gt;&lt;div&gt;&lt;b&gt;&lt;br&gt;&lt;/b&gt;&lt;/div&gt;&lt;div&gt;&lt;b&gt;&lt;br&gt;&lt;/b&gt;&lt;/div&gt;&lt;div&gt;&lt;br&gt;&lt;/div&gt;" style="rounded=1;whiteSpace=wrap;html=1;" vertex="1" parent="1">
          <mxGeometry x="211.5" y="-1962.5" width="160" height="85" as="geometry" />
        </mxCell>
        <mxCell id="nZ3FSQc-BHvVaOolIKdR-25" value="&lt;h6&gt;HTTP Request&lt;/h6&gt;" style="rounded=1;whiteSpace=wrap;html=1;fillColor=#3D0D35;fontColor=#ffffff;strokeColor=#432D57;" vertex="1" parent="1">
          <mxGeometry x="244.75" y="-1925" width="93.5" height="20" as="geometry" />
        </mxCell>
        <mxCell id="nZ3FSQc-BHvVaOolIKdR-28" value="" style="edgeStyle=orthogonalEdgeStyle;rounded=1;orthogonalLoop=1;jettySize=auto;html=1;curved=0;strokeWidth=2;exitX=0.5;exitY=0;exitDx=0;exitDy=0;strokeColor=#FFFFFF;" edge="1" parent="1" source="nZ3FSQc-BHvVaOolIKdR-24">
          <mxGeometry relative="1" as="geometry">
            <mxPoint x="291.18" y="-2030" as="sourcePoint" />
            <mxPoint x="291.5" y="-2090" as="targetPoint" />
          </mxGeometry>
        </mxCell>
        <mxCell id="nZ3FSQc-BHvVaOolIKdR-31" value="" style="edgeStyle=orthogonalEdgeStyle;rounded=1;orthogonalLoop=1;jettySize=auto;html=1;curved=0;strokeWidth=2;exitX=0.5;exitY=1;exitDx=0;exitDy=0;entryX=0.5;entryY=0;entryDx=0;entryDy=0;strokeColor=#FFFFFF;" edge="1" parent="1" source="nZ3FSQc-BHvVaOolIKdR-6" target="nZ3FSQc-BHvVaOolIKdR-12">
          <mxGeometry relative="1" as="geometry">
            <mxPoint x="721.5" y="-1957" as="sourcePoint" />
            <mxPoint x="721.5" y="-2085" as="targetPoint" />
          </mxGeometry>
        </mxCell>
        <mxCell id="nZ3FSQc-BHvVaOolIKdR-32" value="" style="edgeStyle=orthogonalEdgeStyle;rounded=1;orthogonalLoop=1;jettySize=auto;html=1;curved=0;strokeWidth=2;exitX=0.5;exitY=0;exitDx=0;exitDy=0;strokeColor=#FFFFFF;" edge="1" parent="1" source="nZ3FSQc-BHvVaOolIKdR-22">
          <mxGeometry relative="1" as="geometry">
            <mxPoint x="291.18" y="-1750" as="sourcePoint" />
            <mxPoint x="291.18" y="-1878" as="targetPoint" />
          </mxGeometry>
        </mxCell>
        <mxCell id="nZ3FSQc-BHvVaOolIKdR-33" value="" style="edgeStyle=orthogonalEdgeStyle;rounded=1;orthogonalLoop=1;jettySize=auto;html=1;curved=0;strokeWidth=2;exitX=0.5;exitY=1;exitDx=0;exitDy=0;entryX=0.5;entryY=0;entryDx=0;entryDy=0;strokeColor=#FFFFFF;" edge="1" parent="1" source="nZ3FSQc-BHvVaOolIKdR-12" target="nZ3FSQc-BHvVaOolIKdR-19">
          <mxGeometry relative="1" as="geometry">
            <mxPoint x="481.81999999999994" y="-1688.75" as="sourcePoint" />
            <mxPoint x="481.5" y="-1824.75" as="targetPoint" />
          </mxGeometry>
        </mxCell>
      </root>
    </mxGraphModel>
  </diagram>
</mxfile>
